<svg width="92" height="92" viewBox="0 0 92 92" fill="none" xmlns="http://www.w3.org/2000/svg">
<circle cx="46" cy="46" r="45.5" stroke="#EC7979"/>
<path d="M35.7308 78.8114C35.2572 78.6078 34.8637 78.2494 34.6123 77.7927C34.3608 77.336 34.2659 76.8071 34.3423 76.2893L38.5542 48.3575H27.3765C27.0221 48.3672 26.6703 48.2939 26.3482 48.1432C26.026 47.9925 25.7422 47.7684 25.5186 47.4882C25.2949 47.2081 25.1375 46.8793 25.0584 46.5274C24.9793 46.1754 24.9806 45.8096 25.0622 45.4583L32.0049 14.8158C32.1271 14.2885 32.4239 13.8201 32.8454 13.4895C33.2669 13.1589 33.7874 12.9864 34.3192 13.0008H57.4615C57.8072 12.9996 58.1488 13.0774 58.4612 13.2283C58.7735 13.3792 59.0488 13.5995 59.2666 13.873C59.4875 14.1495 59.6439 14.4735 59.724 14.8206C59.8042 15.1676 59.806 15.5287 59.7294 15.8765L55.7258 34.2149H66.7184C67.1521 34.214 67.5774 34.3373 67.9456 34.5706C68.3139 34.804 68.6104 35.1381 68.8012 35.5348C68.967 35.9156 69.0308 36.3343 68.9861 36.7484C68.9414 37.1624 68.7898 37.557 68.5466 37.892L38.4616 77.9629C38.2583 78.2699 37.9868 78.5238 37.6692 78.7039C37.3515 78.8841 36.9967 78.9856 36.6334 79C36.3237 78.9941 36.0178 78.9302 35.7308 78.8114ZM49.9402 38.9291L54.5687 17.7151H36.1705L30.2924 43.6433H43.9695L40.2899 67.8744L62.0899 38.9291H49.9402Z" fill="#EC7979"/>
</svg>
