<svg width="92" height="92" viewBox="0 0 92 92" fill="none" xmlns="http://www.w3.org/2000/svg">
<circle cx="46" cy="46" r="45.5" stroke="#EC7979"/>
<path d="M37.1683 63.7814H54.1184H37.1683ZM45.6452 13V16.6272V13ZM68.7289 22.5614L66.1645 25.1259L68.7289 22.5614ZM78.2903 45.6452H74.6631H78.2903ZM16.6272 45.6452H13H16.6272ZM25.1259 25.1259L22.5614 22.5614L25.1259 25.1259ZM32.8192 58.4711C30.2833 55.9345 28.5565 52.7029 27.8571 49.185C27.1577 45.667 27.5171 42.0207 28.89 38.707C30.2628 35.3933 32.5873 32.5611 35.5697 30.5685C38.5521 28.5759 42.0584 27.5123 45.6452 27.5123C49.232 27.5123 52.7382 28.5759 55.7206 30.5685C58.703 32.5611 61.0275 35.3933 62.4004 38.707C63.7732 42.0207 64.1326 45.667 63.4332 49.185C62.7338 52.7029 61.007 55.9345 58.4711 58.4711L56.4834 60.4552C55.347 61.5918 54.4456 62.9411 53.8307 64.426C53.2158 65.911 52.8994 67.5025 52.8996 69.1098V71.0358C52.8996 72.9599 52.1353 74.8051 50.7749 76.1655C49.4144 77.526 47.5692 78.2903 45.6452 78.2903C43.7212 78.2903 41.8759 77.526 40.5155 76.1655C39.155 74.8051 38.3907 72.9599 38.3907 71.0358V69.1098C38.3907 65.8634 37.0994 62.7476 34.807 60.4552L32.8192 58.4711Z" stroke="#EC7979" stroke-width="6.83333" stroke-linecap="round" stroke-linejoin="round"/>
</svg>
